<?xml version="1.0" encoding="UTF-8" standalone="no"?>
<svg xmlns="http://www.w3.org/2000/svg" width="800" height="400" viewBox="0 0 800 400">
  <rect width="800" height="400" fill="#326CE5"/>
  <g transform="translate(400, 200) scale(8)">
    <path d="M25.016 21.566c-0.253 0-0.499-0.057-0.729-0.17l-7.425-3.658c-0.461-0.229-0.752-0.691-0.752-1.199v-7.352c0-0.509 0.29-0.969 0.75-1.198l7.428-3.652c0.461-0.228 1-0.228 1.459 0l7.428 3.652c0.459 0.229 0.748 0.689 0.748 1.198v7.352c0 0.508-0.289 0.969-0.748 1.199l-7.428 3.658c-0.229 0.113-0.476 0.17-0.73 0.17z" fill="#ffffff"/>
    <path d="M25 15.38c-1.88 0-3.4-1.52-3.4-3.4s1.52-3.4 3.4-3.4 3.4 1.52 3.4 3.4-1.52 3.4-3.4 3.4zM25 7.38c-2.53 0-4.6 2.07-4.6 4.6s2.07 4.6 4.6 4.6 4.6-2.07 4.6-4.6-2.07-4.6-4.6-4.6z" fill="#326CE5"/>
    <path d="M27 10.98h-1.4v-1.4h-1.2v1.4h-1.4v1.2h1.4v1.4h1.2v-1.4h1.4v-1.2z" fill="#326CE5"/>
  </g>
  <text x="400" y="300" font-family="Arial" font-size="24" text-anchor="middle" fill="white">Kubernetes Best Practices</text>
</svg>